<svg width="1440" height="511" viewBox="0 0 1440 511" fill="none" xmlns="http://www.w3.org/2000/svg">
<path fill-rule="evenodd" clip-rule="evenodd" d="M1442.88 472.401L1449.15 472.479L1504.79 20.0378C1501.79 19.749 1498.79 19.4653 1495.79 19.1814C1494.47 19.0564 1493.15 18.9313 1491.83 18.8057C1490.39 19.4524 1488.59 19.9359 1486.62 20.2111C1484.64 20.4862 1482.54 20.5439 1480.52 20.3787C1480.13 20.2762 1479.73 20.175 1479.32 20.0734C1478.86 19.9578 1478.4 19.8416 1477.94 19.7223C1475.63 20.7311 1471.93 20.6206 1468.23 20.5101C1464.55 20.4001 1460.87 20.29 1458.54 21.2806C1456.11 20.4189 1453.24 19.8185 1450.14 19.5278C1447.04 19.2373 1443.81 19.2646 1440.7 19.6079C1439.92 18.3298 1435.66 18.054 1432.28 18.0642C1428.9 18.0746 1424.69 17.9076 1423.57 16.6753L1420.23 17.681C1419.38 17.0228 1418.21 16.4519 1416.8 16.0057C1415.39 15.5594 1413.77 15.248 1412.04 15.0918C1411.12 15.0533 1410.25 14.9191 1409.5 14.7009C1408.87 14.4647 1408.69 14.1338 1408.51 13.7935C1408.4 13.588 1408.29 13.3792 1408.07 13.1857C1407.75 12.972 1407.31 12.7937 1406.8 12.6635C1406.28 12.5332 1405.7 12.4543 1405.1 12.4327C1404.77 12.4207 1404.43 12.4265 1404.1 12.45C1403.84 12.4685 1403.58 12.4982 1403.33 12.5387C1402.76 12.63 1402.24 12.774 1401.81 12.9604L1399.64 12.1322C1398.71 12.5973 1397.76 13.0677 1396.84 13.5431C1395.43 13.0391 1394.01 12.5353 1392.63 12.031C1392.14 13.4551 1388.3 14.5764 1384.64 14.314C1382.87 14.1831 1381.18 13.7811 1379.53 13.3892C1376.96 12.7772 1374.5 12.1896 1371.97 12.6975L1374.69 10.6776C1372.88 10.8051 1371.04 10.7111 1369.38 10.4066C1367.71 10.1022 1366.3 9.59985 1365.3 8.95825C1365.23 8.91016 1365.16 8.8606 1365.09 8.81018C1364.34 8.2688 1363.44 7.62793 1361.94 7.72754C1361.28 7.78784 1360.77 7.96594 1360.27 8.14404C1360.07 8.21521 1359.86 8.28638 1359.65 8.3501C1357.09 9.11682 1352.68 8.10229 1353.2 6.86548L1345.52 7.79443C1344.12 7.06909 1342.39 6.47241 1340.44 6.03845C1338.48 5.60449 1336.34 5.3418 1334.13 5.2655C1333.94 4.79993 1333.76 4.32971 1333.58 3.8595C1333.48 3.61719 1333.39 3.37476 1333.3 3.13306C1329.27 4.11389 1324.97 4.86792 1320.51 5.37598C1322.96 5.60657 1322.39 7.11511 1320.54 7.79468C1319.88 8.03723 1319.12 8.24329 1318.36 8.44873C1316.98 8.81873 1315.62 9.18652 1314.89 9.76208C1314.12 9.72986 1313.36 9.73926 1312.61 9.74854C1312.18 10.1292 1311.77 10.5149 1311.33 10.9008C1306.63 11.9995 1301.56 12.7665 1296.32 13.1713C1290.08 15.4415 1282.14 16.6549 1274.04 16.574C1273.01 16.5424 1271.98 16.5552 1270.95 16.6122C1269.91 16.7046 1268.88 16.834 1267.89 16.9991C1266.88 17.2111 1265.96 17.4921 1265.15 17.8306C1265.05 17.8734 1264.93 17.907 1264.79 17.9293C1264.71 17.9432 1264.62 17.9525 1264.54 17.957C1264.48 17.9598 1264.43 17.9608 1264.38 17.9601C1264.05 17.9454 1263.9 17.8192 1263.75 17.6915C1263.6 17.5685 1263.45 17.4442 1263.15 17.4174C1262.85 17.3914 1262.57 17.4856 1262.28 17.5802C1261.96 17.6854 1261.64 17.7909 1261.31 17.7319C1261.19 17.7123 1261.1 17.6693 1261.01 17.626C1260.92 17.5841 1260.83 17.5419 1260.71 17.5204C1260.37 17.4598 1260.06 17.5509 1259.75 17.6433C1259.46 17.7296 1259.16 17.817 1258.83 17.7833C1258.74 17.7742 1258.65 17.7524 1258.57 17.7258C1258.45 17.6855 1258.35 17.634 1258.22 17.5979C1258.06 17.5563 1257.88 17.5234 1257.7 17.4999C1257.56 17.4827 1257.42 17.4705 1257.28 17.4636C1256.16 17.3679 1255.05 17.2721 1253.9 17.182C1252.77 17.1132 1251.67 16.9683 1250.66 16.7527C1250.17 16.6501 1249.76 16.494 1249.47 16.3C1249.17 16.106 1249 15.881 1248.97 15.6473C1247.07 15.7833 1245.13 15.6936 1243.36 15.3882C1243.44 15.3815 1243.52 15.3763 1243.56 15.3605C1243.59 15.3468 1243.58 15.325 1243.52 15.2871C1243.37 15.2056 1243.03 15.2306 1242.77 15.2494C1242.52 15.2682 1242.11 15.2472 1242.11 15.1481C1242.44 15.1046 1242.73 15.019 1242.94 14.9033C1241.59 14.8073 1240.23 14.7631 1238.86 14.7711C1239.18 14.5677 1239.4 14.3373 1239.49 14.0963C1239.58 13.8553 1239.55 13.6099 1239.39 13.3777C1238.86 13.5466 1238.37 13.7416 1237.94 13.9587C1237.1 13.3942 1236.34 12.8099 1235.66 12.209C1235.41 12.5416 1235.04 12.8573 1234.57 13.1453C1233.87 12.7263 1233.18 12.3074 1232.46 11.8835C1232.17 12.3324 1231.08 12.5377 1229.95 12.7501C1229.15 12.9008 1228.33 13.0549 1227.76 13.3021C1227.47 13.4348 1227.25 13.5962 1227.03 13.7563C1226.66 14.0363 1226.28 14.3124 1225.51 14.4247C1225.38 14.4495 1225.23 14.4513 1225.09 14.4298C1225.02 14.4159 1224.95 14.3953 1224.89 14.369C1224.86 14.3535 1224.83 14.3363 1224.8 14.3176C1224.79 14.3048 1224.77 14.2914 1224.76 14.2775L1223.46 13.204C1223.38 13.1111 1223.25 13.0293 1223.08 12.9652C1222.99 12.9285 1222.88 12.8976 1222.76 12.8738C1222.18 12.8079 1221.64 13.0179 1221.3 13.1993L1219.35 14.2244C1219.16 14.3463 1218.89 14.441 1218.58 14.4945C1217.98 14.5658 1217.55 14.3766 1217.1 14.1772C1216.75 14.0184 1216.38 13.8531 1215.89 13.8082C1215.45 13.9554 1215.3 14.1949 1215.16 14.4189C1215.13 14.4666 1215.1 14.5135 1215.07 14.5587C1214.89 14.8163 1214.38 15.1198 1213.67 15.0972C1213.42 15.0677 1213.16 15.0482 1212.9 15.0389C1212.74 15.0471 1212.6 15.0983 1212.55 15.1522C1212.52 15.1901 1212.54 15.2292 1212.62 15.2561C1212.03 15.5597 1211.46 15.817 1210.91 16.069C1210.22 16.38 1209.55 16.6829 1208.88 17.0541C1208.06 17.4863 1206.79 17.9713 1205.57 17.7205C1205.22 17.6442 1204.98 17.5107 1204.74 17.3771C1204.48 17.2339 1204.23 17.0905 1203.84 17.0171C1202.81 16.8221 1201.84 17.1743 1200.92 17.505C1200.71 17.5811 1200.5 17.656 1200.3 17.7229C1198.8 18.1897 1195.94 18.0476 1195.73 17.3099C1193.86 17.8352 1191.68 18.1208 1189.47 18.1327C1187.69 18.2432 1185.88 18.2089 1184.15 18.0315C1183.31 17.9456 1182.56 17.7622 1181.97 17.5016C1181.38 17.241 1180.97 16.9135 1180.8 16.5557L1174.12 17.5607C1173.56 17.6635 1172.95 17.7085 1172.34 17.6921C1171.51 17.639 1170.94 17.365 1170.38 17.093C1169.79 16.8064 1169.2 16.5221 1168.3 16.5011C1168.36 17.1207 1166.39 17.4475 1164.8 17.4045C1164.31 17.3912 1163.82 17.359 1163.33 17.3269C1162.23 17.2552 1161.15 17.1843 1160.11 17.3267C1157.68 17.6487 1157.08 18.8656 1156.92 19.8685C1155.09 19.7159 1153.46 19.2867 1152.32 18.6583C1151.87 19.2312 1151.85 19.8463 1152.26 20.4161C1151.72 20.344 1151.13 20.3641 1150.61 20.4724C1150.1 20.5807 1149.69 20.7688 1149.48 20.9977C1149.19 21.4438 1148.94 21.8959 1148.76 22.3517C1148.36 22.7737 1147.67 23.135 1146.77 23.3853C1145.88 23.6355 1144.84 23.7623 1143.78 23.7477C1143.1 22.5621 1142.88 21.3317 1143.14 20.1062C1139.98 19.9611 1136.81 19.894 1133.62 19.9055C1133.09 19.1405 1131.98 18.2209 1129.94 18.2721C1129.15 18.3391 1128.37 18.427 1127.6 18.5355C1125.2 18.7059 1123.38 17.7482 1122.42 16.8842C1122.14 16.6322 1121.78 16.3499 1121.1 16.2905C1120.64 16.267 1120.18 16.2961 1119.76 16.3749L1115.32 17.0656C1113.52 17.3671 1111.79 17.7375 1110.14 18.1721C1109.09 17.8123 1107.82 17.5894 1106.47 17.5292C1100.68 17.0375 1094.82 16.6718 1088.94 16.4263C1088.15 16.3575 1087.32 16.4064 1086.59 16.5648C1085.45 16.8864 1085.79 17.5547 1086.23 18.0707C1083 18.0582 1079.8 18.03 1076.57 17.9655C1075.77 17.9753 1074.97 17.9048 1074.25 17.7595C1073.63 17.5464 1073.1 17.2885 1072.68 16.9968C1071.84 16.5886 1070.73 16.2946 1069.5 16.1492C1068.26 16.0037 1066.95 16.0129 1065.71 16.1757C1062.29 14.4822 1059.4 12.6068 1057.1 10.5939C1056.79 11.1726 1056.05 11.6969 1054.99 12.0848C1053.84 12.4327 1051.79 12.3694 1051.26 11.8545C1051.13 11.7235 1051.11 11.582 1051.09 11.4399C1051.07 11.2803 1051.04 11.1199 1050.87 10.973C1050.3 10.5133 1048.88 10.559 1047.42 10.6056C1046.8 10.6256 1046.17 10.6458 1045.6 10.6261C1043.9 10.5675 1042.54 10.0762 1041.21 9.59534C1039.67 9.03674 1038.16 8.49231 1036.2 8.65662C1036.52 9.46436 1037.23 10.2311 1038.29 10.9092C1037.26 10.8184 1036.18 10.8439 1035.17 10.9834C1034.16 11.1229 1033.24 11.3716 1032.51 11.705C1031.87 12.0333 1031.46 12.436 1031.36 12.8594C1031.26 13.2827 1031.46 13.7064 1031.93 14.0739C1030.2 14.4332 1028.58 13.759 1027.16 13.171C1026.94 13.0787 1026.73 12.9886 1026.51 12.905C1025.57 12.5442 1024.46 12.2728 1023.25 12.1083C1022.03 11.9437 1020.75 11.8895 1019.47 11.9491C1018.42 11.995 1017.42 12.1143 1016.41 12.2334C1015.66 12.3218 1014.91 12.4102 1014.15 12.4684C1011.5 12.6636 1008.84 12.4749 1006.18 12.2856C1004.15 12.1412 1002.11 11.9965 1000.06 12.0216C998.596 12.0382 997.058 12.1317 995.525 12.2249C991.8 12.4513 988.104 12.676 985.496 11.7902C985.473 11.781 985.448 11.7722 985.421 11.7642C985.446 11.7729 985.471 11.7816 985.496 11.7902C985.934 11.9684 985.442 12.3389 984.77 12.377C984.052 12.3909 983.355 12.2898 982.814 12.0935C982.845 12.3108 982.765 12.5295 982.578 12.7343C982.391 12.939 982.102 13.1248 981.731 13.2784C981.361 13.4321 980.918 13.55 980.434 13.6238C980.161 13.6654 979.88 13.6924 979.595 13.7045C979.374 13.7139 979.151 13.7142 978.93 13.7054C978.816 13.1633 978.302 12.6548 977.46 12.2533C976.288 12.5789 974.887 12.7112 973.524 12.6251C973.845 12.0189 973.665 11.3888 973.014 10.8431C972.288 11.2072 971.401 11.5061 970.405 11.7218C969.41 11.9376 968.327 12.0656 967.222 12.098C964.94 12.1001 962.673 11.2938 963.126 10.4229C962.432 10.7172 961.577 10.9324 960.643 11.0479C959.709 11.1635 958.727 11.1755 957.791 11.0829L957.079 12.7183C955.314 12.0988 952.527 12.644 950.533 13.1692C948.538 13.6942 945.53 14.1484 944.07 13.4209C943.014 12.9126 941.358 12.1926 939.725 12.3691C938.813 12.4678 937.986 12.6483 937.158 12.8291C936.503 12.9719 935.847 13.115 935.149 13.218C932.972 13.4659 930.71 13.5222 928.501 13.3834C924.815 13.2568 920.921 13.0962 917.934 12.2572C917.705 12.1926 917.475 12.1233 917.243 12.0535C916.112 11.7128 914.934 11.3579 913.569 11.4612C913.042 11.4991 912.566 11.6021 912.091 11.7047C911.62 11.8066 911.15 11.9083 910.634 11.9458C909.335 11.9628 908.061 11.8171 906.969 11.527C905.746 11.3126 904.159 11.207 903.31 11.6034C903.17 11.6692 903.057 11.7455 902.945 11.8213C902.766 11.9427 902.588 12.063 902.304 12.1371C901.71 12.2985 900.978 12.2158 900.248 12.1332C899.692 12.0703 899.137 12.0074 898.643 12.0519C897.862 12.1219 897.418 12.3694 896.964 12.6219C896.752 12.74 896.538 12.8593 896.287 12.962C894.211 13.7853 890.629 13.2351 888.182 12.6344C888.155 12.7338 888.126 12.8331 888.097 12.9325C888.04 13.1313 887.983 13.3302 887.937 13.5289C886.291 12.6577 882.67 12.8693 880.274 13.4514C879.459 13.6494 878.687 13.8818 877.915 14.114C876.419 14.5643 874.927 15.0135 873.134 15.2076C871.922 14.4917 870.369 13.8948 868.574 13.4548C868.476 14.3333 868.21 15.2084 867.776 16.0714L858.718 15.6617C856.753 15.5608 854.276 15.5653 853.321 16.2496C852.624 16.1696 852.423 15.8696 852.221 15.5698C852.019 15.2699 851.817 14.97 851.12 14.8899C850.598 14.8551 850.06 14.9044 849.609 15.0284L845.726 15.775C844.874 14.9261 843.546 14.1838 841.857 13.6121C841.505 13.4661 841.081 13.356 840.614 13.2896C840.147 13.2233 839.649 13.2023 839.155 13.2283C838.376 13.3289 837.915 13.5999 837.447 13.8748C837.19 14.0251 836.932 14.1768 836.619 14.3024C835.979 14.5177 835.227 14.6631 834.432 14.7257C833.636 14.7882 832.822 14.766 832.06 14.6609C830.566 14.4336 829.18 14.098 827.961 13.6687C825.303 12.8412 822.621 12.0193 819.964 11.2023C818.58 10.7657 816.78 10.2979 815.076 10.564C811.264 11.1636 806.384 10.1497 805.718 8.59387C804.392 8.8761 803.09 9.15283 801.787 9.42957C801.087 9.03088 800.595 8.57153 800.343 8.08142C799.067 8.48816 797.56 8.9082 795.984 8.78687C795.178 8.68604 794.409 8.53943 793.698 8.35107C792.737 8.16406 791.69 8.06543 790.626 8.06152C789.561 8.05762 788.5 8.14844 787.512 8.32825C786.124 8.57996 785.085 9.39038 786.308 9.68298C785.191 9.87329 783.982 9.93286 782.807 9.85571C781.632 9.77844 780.534 9.56714 779.629 9.2439C779.298 9.10486 779.006 8.95532 778.718 8.8075C778.313 8.6001 777.914 8.39587 777.421 8.22839C777.01 8.07068 776.497 7.96887 775.946 7.93591C775.395 7.90283 774.829 7.93994 774.319 8.04248C773.819 8.17627 773.542 8.39233 773.267 8.60706C772.981 8.83093 772.696 9.05322 772.162 9.17957C771.167 9.41028 770.112 9.18738 769.028 8.9585C768.482 8.84314 767.929 8.72632 767.373 8.66504C766.611 8.59705 765.818 8.60999 765.062 8.703C764.306 8.7959 763.611 8.96594 763.036 9.19824C761.972 9.66162 761.11 10.2023 760.494 10.7936L755.868 9.68286C755.841 9.83105 755.81 9.97693 755.777 10.1221C755.741 10.2789 755.702 10.4349 755.66 10.5925C754.187 10.5793 752.711 10.5819 751.231 10.6002C751.051 10.8422 750.847 11.0793 750.642 11.3165C749.635 11.1267 748.498 11.0911 747.42 11.2155C746.397 11.4 746.027 12.0668 747.066 12.2312C746.669 12.4558 746.126 12.626 745.507 12.7201C744.889 12.8141 744.223 12.8276 743.596 12.7588C742.94 12.7097 742.34 12.5763 741.873 12.3763C741.407 12.1764 741.097 11.9193 740.983 11.6389C739.918 12.0089 738.666 12.2657 737.332 12.3877C737.098 12.4261 736.847 12.441 736.599 12.4314C736.352 12.4219 736.114 12.3879 735.904 12.3323C735.358 12.1167 735.87 11.8358 736.398 11.5461C736.687 11.3875 736.981 11.2261 737.109 11.0714C737.469 10.6343 736.451 10.1829 735.291 10.0876C734.13 10.0383 732.952 10.1156 731.865 10.3124C732.041 10.0726 732.063 9.8186 731.929 9.57703C731.795 9.33557 731.51 9.11548 731.104 8.94019C730.657 8.75928 730.074 8.65149 729.453 8.63538C728.832 8.61926 728.213 8.6958 727.699 8.85181C726.978 9.09875 726.737 9.51477 726.505 9.91553C726.229 10.3926 725.965 10.848 724.919 10.9714C723.819 11.1013 722.988 10.7812 722.117 10.4459C721.465 10.1947 720.791 9.93494 719.964 9.84912C719.436 10.4749 719.24 11.14 719.39 11.7955C718.259 11.5432 716.981 11.4281 715.693 11.4623C714.404 11.4965 713.153 11.6788 712.073 11.99C711.909 12.0396 711.744 12.0931 711.578 12.1472C710.834 12.3895 710.06 12.6418 709.152 12.5891C708.38 12.5355 707.787 12.2826 707.221 12.0414C706.526 11.7448 705.873 11.4661 704.979 11.5979C704.598 11.8467 704.386 12.1348 704.367 12.4291C703.144 12.1991 701.507 12.0056 700.707 12.4221C700.578 12.4932 700.491 12.5754 700.402 12.6586C700.325 12.7316 700.247 12.8052 700.139 12.8723C699.28 13.4094 697.167 13.2217 695.784 12.8999L695.678 12.8752C694.318 12.5581 692.713 12.1838 691.301 12.4807C690.858 12.5974 690.45 12.7373 690.086 12.8971C688.204 13.5929 685.437 13.7886 682.925 13.9447C680.414 14.1007 677.903 14.2568 675.392 14.4233C674.012 14.5526 672.588 14.5452 671.231 14.4016C670.702 14.3226 670.217 14.1998 669.734 14.0775C669.069 13.9088 668.406 13.741 667.635 13.6901C665.841 13.5682 664.327 14.072 662.872 14.5565C662.535 14.6687 662.201 14.7799 661.867 14.8821C659.254 15.6859 655.939 16.0291 652.735 16.3553C652.024 16.4453 651.282 16.474 650.552 16.4396C649.749 16.3251 648.994 16.1586 648.313 15.9458C647.03 15.6475 645.557 15.5238 644.087 15.5912C643.637 15.8458 643.83 16.1558 644.026 16.4695C644.199 16.7468 644.374 17.0271 644.108 17.275C643.819 17.5449 643.125 17.6918 642.443 17.8362C642.244 17.8783 642.046 17.9202 641.859 17.9648C640.981 18.1853 640.308 18.5314 639.964 18.9402C639.62 19.349 639.627 19.7935 639.984 20.1932L635.607 20.4557C634.753 20.501 633.809 20.2079 632.874 19.9172C631.845 19.5978 630.825 19.2811 629.945 19.4203C629.204 19.5282 628.867 19.8594 628.566 20.1545L628.564 20.1567C627.959 20.8116 626.917 21.3798 625.57 21.7889C624.854 21.9948 624.036 22.1239 623.186 22.1653C622.336 22.2067 621.48 22.1591 620.693 22.0264C620.204 21.9354 619.777 21.8019 619.352 21.6687C618.862 21.5155 618.374 21.3625 617.792 21.2749C616.704 21.1111 615.036 21.3767 615.237 21.8278C614.096 21.3517 611.564 21.8209 611.792 22.475L609.04 21.8781C608.645 21.7546 608.166 21.6893 607.671 21.6917C607.183 21.708 606.722 21.9171 606.944 22.0916C606.139 21.672 604.716 21.8303 603.329 21.9847C602.897 22.0327 602.469 22.0803 602.064 22.11C600.829 22.1614 599.587 22.1149 598.402 21.9728L593.382 21.5132C592.868 21.4873 592.383 21.4033 591.976 21.2699C591.626 21.1252 591.452 20.9235 591.286 20.7302C591.121 20.5378 590.964 20.354 590.646 20.2435C590.013 20.0238 589.049 20.1571 588.225 20.2711L588.206 20.2737C586.49 20.5004 584.692 20.5786 582.921 20.5037C581.149 20.4288 579.439 20.2024 577.891 19.8378C578.78 19.1532 579.382 18.4098 579.67 17.6418C577.661 17.9369 575.5 17.9545 573.497 17.6918C572.821 17.5487 572.044 17.5122 571.3 17.5886C570.646 17.7092 570.418 17.9807 570.185 18.2582C570.019 18.4564 569.85 18.6578 569.521 18.8096C568.498 19.3021 566.668 19.0774 565.022 18.8754C564.737 18.8403 564.458 18.806 564.189 18.7762C561.135 18.4229 557.821 18.8287 554.875 19.3551C554.311 18.8889 553.535 18.4769 552.591 18.1425C552.086 17.9718 551.482 17.8616 550.84 17.8229C550.197 17.7842 549.538 17.8182 548.928 17.9218C548.367 18.0367 547.945 18.2401 547.516 18.4468C547.2 18.5989 546.881 18.7527 546.5 18.8745C545.601 19.1619 543.868 19.1884 543.631 18.7429C543.715 19.649 540.476 20.1217 538.373 19.7462C536.612 19.4318 535.488 18.7913 534.376 18.1571C534.16 18.0341 533.944 17.9113 533.725 17.7911C532.374 17.0518 530.474 16.3192 528.144 16.3793C528.172 16.2919 528.174 16.204 528.151 16.1176C528.131 16.0439 528.092 15.9714 528.036 15.9012C527.913 15.7487 527.707 15.6112 527.435 15.5001C527.164 15.3889 526.833 15.3071 526.471 15.2612C526.109 15.2152 525.724 15.2064 525.348 15.2355C524.476 15.3623 523.654 15.5485 522.915 15.7867C522.09 15.9865 521.185 16.1149 520.252 16.1649C519.318 16.2148 518.375 16.1853 517.477 16.078C516.138 16.228 514.906 16.5234 513.901 16.9354C512.905 17.3282 511.384 17.6598 510.161 17.4194C509.956 17.3783 509.762 17.3235 509.571 17.2693C509.168 17.1552 508.773 17.0436 508.302 17.067C507.563 17.1104 507.388 17.4065 507.202 17.7195C507.048 17.9795 506.887 18.2511 506.391 18.3992C504.161 17.8533 502.301 17.073 500.983 16.1301C500.7 16.9365 500.417 17.7324 500.146 18.5387C500.142 18.7029 500.053 18.8656 499.883 19.0148C499.714 19.1638 499.47 19.2957 499.169 19.4005C498.659 19.5458 498.025 19.5428 497.378 19.5399C496.836 19.5375 496.286 19.5349 495.792 19.6194C494.792 19.7938 494.494 20.2178 494.188 20.6541C494.001 20.9193 493.812 21.1891 493.459 21.4103C492.917 21.6956 492.149 21.8859 491.307 21.9435C490.465 22.0012 489.61 21.9221 488.912 21.7219C489.773 21.3796 490.422 20.952 490.8 20.4786C490.935 20.2384 490.867 19.9875 490.61 19.7704C490.353 19.5532 489.923 19.3837 489.395 19.2916C488.932 19.2681 488.475 19.2301 488.027 19.1781C486.845 18.9951 486.849 18.484 486.853 17.9404C486.856 17.5229 486.86 17.0863 486.326 16.7644C485.563 16.2524 483.818 16.2062 482.379 16.2917C480.959 16.4551 479.486 16.5033 478.037 16.4338C477.249 16.3508 476.573 16.1722 475.895 15.9932C475.239 15.8197 474.581 15.6459 473.817 15.5579C472.703 15.4235 471.451 15.4905 470.226 15.556C468.563 15.6451 466.949 15.7316 465.799 15.3074C466.216 14.5201 466.096 13.7034 465.453 12.9552C465.037 12.5771 464.316 12.278 463.42 12.1113C462.524 11.9446 461.51 11.9214 460.561 12.0458C460.091 12.1219 459.688 12.2537 459.285 12.3851C458.822 12.5361 458.361 12.6869 457.8 12.7523C456.192 12.9442 454.451 12.2306 455.029 11.6187C454.41 11.9026 453.804 12.1917 453.197 12.4858C453.012 12.42 452.796 12.3718 452.562 12.3442C452.329 12.3167 452.083 12.3103 451.841 12.3256C451.599 12.3407 451.366 12.3772 451.157 12.4327C450.948 12.4883 450.766 12.5615 450.625 12.6479C450.187 12.2449 449.5 11.9026 448.636 11.6572C447.771 11.4117 446.762 11.2725 445.716 11.2539C444.796 10.9819 443.49 11.0034 442.206 11.0245C440.773 11.0481 439.368 11.0712 438.559 10.6852C438.269 10.5499 438.071 10.3716 437.879 10.1979C437.558 9.90881 437.251 9.63257 436.557 9.58899C435.947 9.55066 435.453 9.71069 434.942 9.87634C434.523 10.0122 434.092 10.1519 433.575 10.1887C433.137 10.2089 432.696 10.1895 432.281 10.1317L411.157 7.72278C409.166 7.49707 407.076 7.24133 405.848 6.60474C405.019 6.0426 404.433 5.41968 404.118 4.76489C403.935 4.42944 403.551 4.12207 403.003 3.87292C402.454 3.62378 401.76 3.44141 400.989 3.34363C400.076 3.27502 399.138 3.38098 398.208 3.48621C397.135 3.60754 396.07 3.72791 395.062 3.57837C394.421 3.46423 393.846 3.29382 393.372 3.07776C391.043 2.13159 388.761 1.11707 386.552 0.101562L386.5 0.234253C386.188 1.01733 385.896 1.75244 385.582 2.50659C385.01 2.5553 384.421 2.51038 383.933 2.38086C383.986 2.51135 384.045 2.64185 384.104 2.77148C384.158 2.88928 384.211 3.00635 384.259 3.12244C383.322 2.79517 382.19 2.58411 380.982 2.51111C380.765 3.36877 380.544 4.24048 380.319 5.12598C373.954 5.70813 367.8 6.68335 362.054 8.02051C359.816 8.54858 356.773 9.13354 354.739 8.48083C354.197 8.30457 353.756 8.05054 353.326 7.80286C352.543 7.35144 351.796 6.92102 350.537 7.02075C349.9 7.06702 349.435 7.2467 348.967 7.42737C348.736 7.5166 348.504 7.60596 348.251 7.67969C346.782 8.10571 344.805 8.02161 343.012 7.94531L342.959 7.94312C337.499 7.73401 331.973 7.9469 326.643 8.57178C327.331 8.94385 326.545 9.52185 325.436 9.66577C324.86 9.71558 324.27 9.71594 323.699 9.6665C323.129 9.61719 322.59 9.51917 322.114 9.3783C322.425 8.8479 320.015 8.33545 318.636 8.34192C318.253 8.34375 317.862 8.35864 317.471 8.37354C316.457 8.41199 315.443 8.45044 314.561 8.26184C313.408 8.005 313.077 7.48035 312.745 6.95459C312.637 6.78284 312.528 6.61096 312.391 6.44824C311.834 5.78784 309.618 5.18945 308.478 5.72485C308.275 5.82581 308.151 5.948 308.028 6.06873C307.865 6.22913 307.705 6.38696 307.365 6.48938C306.509 6.73145 305.696 6.45435 304.833 6.15991C304.102 5.91077 303.335 5.64929 302.475 5.67896C301.612 5.70972 301.103 5.99719 300.58 6.2926C300.156 6.53186 299.723 6.77625 299.086 6.8938C298.425 6.97168 297.729 6.95654 297.101 6.85059C296.472 6.74451 295.946 6.55347 295.601 6.30591C295.015 5.81213 294.284 5.35352 293.425 4.94067C292.396 4.58325 290.407 4.53479 289.876 5.06274C289.35 4.75085 288.598 4.52234 287.733 4.41138L287.501 4.62598C287.169 4.93323 286.84 5.23767 286.527 5.54187C285.974 4.23486 282.112 3.66736 278.838 3.33752C279.529 3.95984 277.695 4.61853 275.963 4.70764C275.113 4.75146 274.255 4.71985 273.396 4.68811C272.507 4.65527 271.616 4.62231 270.729 4.6731C269.352 4.75232 268.028 5.02209 266.734 5.28577C264.773 5.68506 262.882 6.07031 260.982 5.75769C260.211 5.59204 259.471 5.40259 258.767 5.19067C257.545 4.91431 256.138 4.81677 254.755 4.91284C253.373 5.00879 252.09 5.29321 251.099 5.72314C250.118 5.03491 249.547 4.25122 249.436 3.43933C247.214 4.1875 244.418 4.54358 241.64 4.43213C241.422 4.42346 241.197 4.41309 240.969 4.40259C239.308 4.32581 237.458 4.24011 236.52 4.75586L234.204 3.96594L232.579 4.73669C231.242 4.15369 229.905 3.56531 228.556 2.98767C228.003 3.51062 227.844 4.09058 228.1 4.646C223.544 4.24341 221.13 2.35449 219.304 0.67749C219.226 0.578857 219.103 0.488403 218.94 0.411499C218.778 0.334717 218.58 0.273071 218.359 0.230347C218.033 0.215332 217.702 0.231079 217.388 0.276245C217.075 0.321533 216.787 0.395386 216.544 0.492554C212.253 1.77576 206.446 1.82654 201.102 1.81934C199.126 1.82812 196.819 1.7627 195.738 1.12439C195.334 1.20471 194.882 1.22449 194.456 1.18042C194.029 1.13647 193.654 1.03125 193.392 0.88208C193.152 1.18225 192.9 1.48779 192.635 1.79346C191.977 1.60364 191.202 1.49927 190.4 1.49255C189.598 1.48572 188.803 1.5769 188.108 1.75537C187.506 1.5459 186.916 1.33142 186.321 1.11536C186.044 1.01465 185.766 0.913696 185.486 0.812744C185.361 0.753784 185.209 0.706787 185.039 0.674805C184.868 0.642822 184.683 0.626465 184.495 0.626953C184.05 0.632324 183.856 0.797729 183.658 0.967407C183.58 1.03479 183.5 1.10278 183.404 1.16174C182.447 1.74695 180.161 1.40503 178.657 1.07422C177.152 0.743408 174.552 0.62439 174.206 1.30115C173.377 1.49292 172.539 1.64099 171.701 1.7887C170.855 1.93799 170.011 2.08704 169.179 2.28064C168.181 1.87244 167.071 1.51685 165.872 1.22131C165.63 1.14465 165.334 1.10437 165.029 1.10669C164.47 1.13257 164.269 1.36438 164.065 1.59875C163.989 1.68616 163.913 1.77393 163.818 1.85156C163.203 2.39087 161.349 2.47107 159.837 2.48975L153.139 2.53052C152.257 2.4917 151.365 2.59155 150.629 2.81177C150.182 3.03906 149.954 3.32971 149.993 3.62244C149.893 4.4021 150.122 5.17981 150.667 5.91846C149.469 5.5968 148.112 5.39441 146.695 5.32617C145.243 5.31812 143.613 5.69263 143.473 6.2522L141.981 5.94214C141.704 6.11755 141.582 6.32812 141.635 6.53552L138.776 6.27881C138.489 6.83325 138.341 7.39795 138.334 7.96301C137.353 7.71521 136.279 7.53992 135.155 7.44446C134.929 7.90601 134.703 8.36755 134.465 8.82922C130.887 8.56885 127.221 8.55591 123.606 8.79114C124.822 7.61694 126.253 6.48352 127.883 5.40173L120.788 6.8186C118.438 7.2594 115.751 7.95996 115.934 8.96387C115.311 8.56885 114.469 8.24646 113.482 8.02441C112.984 7.91016 112.409 7.86853 111.842 7.90552C111.276 7.94263 110.748 8.05627 110.337 8.22998C108.819 7.84204 106.789 7.44482 105.159 7.79858C104.568 7.95801 104.011 8.1394 103.494 8.34045C102.873 8.52747 102.162 8.65161 101.418 8.70337C100.674 8.755 99.9157 8.73279 99.203 8.63831C96.6826 9.04993 93.0971 8.19226 91.4886 7.35706C91.4386 7.32727 91.3883 7.29626 91.3373 7.26477C90.8988 6.99414 90.4025 6.68787 89.5296 6.79211C89.0004 6.85522 88.793 7.06042 88.5798 7.27148C88.4003 7.44922 88.2166 7.63098 87.8332 7.73584C87.1673 7.92017 86.3888 7.77673 85.5964 7.63074C84.8406 7.49146 84.0722 7.34985 83.377 7.48828C82.7937 7.60144 82.5862 7.85144 82.3769 8.10352C82.1843 8.33545 81.9902 8.56921 81.5008 8.7002C80.6972 8.92188 79.6753 8.74902 78.6818 8.58093C77.6461 8.40564 76.6414 8.2356 75.9475 8.52356C75.8001 8.58411 75.6965 8.65881 75.5938 8.73291C75.4594 8.82983 75.3265 8.92566 75.0991 8.98755C74.4489 9.16821 73.6445 8.97119 72.9149 8.7926C72.785 8.76086 72.6575 8.72961 72.5336 8.70117C71.6826 8.51733 70.6985 8.47156 69.7596 8.57202C68.8207 8.67261 67.9893 8.91272 67.4161 9.24915C66.7978 8.57898 64.5504 8.36682 62.734 8.48828C61.8725 8.5459 61.0445 8.65942 60.2157 8.77307C59.2971 8.89893 58.3774 9.02502 57.4096 9.07532C56.7854 9.11572 56.1778 9.12195 55.5791 9.12805C54.9384 9.13452 54.3077 9.14087 53.6776 9.18909C53.0755 9.20837 52.4934 9.29773 51.9943 9.44714C51.4951 9.59668 51.0977 9.80078 50.8454 10.0374L49.1862 9.05676C48.9593 9.08813 48.7487 9.13867 48.5671 9.20544C48.3854 9.27222 48.2365 9.35376 48.1297 9.44519C47.9644 9.30725 47.7202 9.19006 47.4192 9.10413C47.1182 9.01819 46.7699 8.96631 46.4061 8.95325C46.0422 8.94006 45.6744 8.96606 45.3359 9.02893C44.9974 9.0918 44.699 9.18945 44.4679 9.31299L42.3325 8.29663C41.8998 8.36023 41.5215 8.47974 41.2508 8.63843C40.8991 7.99512 40.2712 7.38782 39.3986 6.84705C38.9269 6.57043 38.3041 6.3479 37.5826 6.19812C36.8611 6.04822 36.0618 5.97534 35.2521 5.98572C33.1953 6.07849 31.7785 6.79211 30.4773 7.44739C30.3669 7.50305 30.2572 7.55823 30.1481 7.61267C28.7536 8.30762 26.4926 8.98206 24.463 8.63684C23.6971 8.47986 23.0397 8.24243 22.5512 7.94617C20.9635 7.10608 19.6325 6.18201 18.5887 5.19531C17.1429 6.01611 15.689 6.83508 14.2268 7.65259C13.7908 7.90295 12.6468 8.13086 12.4357 7.8363L11.7127 8.5647C11.3377 8.29883 10.8157 8.07727 10.1912 7.91882C9.56692 7.7605 8.8586 7.6698 8.12667 7.65479C8.96178 8.09814 7.12638 8.65771 5.69796 8.58142C5.14852 8.55212 4.61297 8.48022 4.08144 8.40881C3.23124 8.29468 2.39132 8.18188 1.52128 8.24707C1.09902 8.27686 0.697388 8.34924 0.297699 8.42126C-0.237217 8.5177 -0.768643 8.61353 -1.34134 8.60559C-2.75684 8.58667 -3.58149 8.00244 -4.23415 7.51526C-4.88669 7.02795 -6.02794 6.48938 -7.40483 6.63147C-8.31239 6.66931 -9.22191 6.60791 -10.0477 6.45288C-10.8737 6.29797 -11.5886 6.05469 -12.1251 5.74609L-12.1944 5.71143C-12.5488 5.53369 -12.972 5.32141 -13.5207 5.37219C-13.9753 5.41736 -14.1215 5.59326 -14.2749 5.77795C-14.3847 5.91003 -14.4982 6.04663 -14.7311 6.14307C-15.2896 6.37415 -16.3161 6.23047 -17.0014 6.06677L-17.0129 6.06421C-17.696 5.901 -18.5351 5.70056 -19.2734 5.83936C-19.5442 5.88684 -19.7496 5.97156 -19.9551 6.0564C-20.1377 6.13171 -20.3204 6.20715 -20.5494 6.25659C-21.3113 6.40747 -22.051 6.22693 -22.8207 6.03906C-23.4403 5.88782 -24.0793 5.73181 -24.7649 5.74023C-25.0547 5.74597 -25.3569 5.78271 -25.6506 5.81836C-26.0614 5.86829 -26.4556 5.91614 -26.7763 5.87451C-27.0533 5.8385 -27.275 5.76489 -27.494 5.69214C-27.7098 5.62036 -27.923 5.54956 -28.1838 5.51648C-28.8359 5.43176 -29.4213 5.59521 -30.0234 5.76318C-30.3353 5.85022 -30.6516 5.93848 -30.9839 5.99414C-31.4055 6.05383 -31.856 6.05969 -32.2794 6.01123C-32.7028 5.96277 -33.0807 5.86182 -33.3665 5.72119L-40.8165 66.2096L-44.8049 66.1813L-98.9883 495.278C-95.987 495.539 -92.98 495.794 -89.9711 496.05C-88.6559 496.161 -87.3403 496.273 -86.0247 496.385C-84.5859 495.766 -82.7945 495.299 -80.8186 495.029C-78.8426 494.759 -76.7467 494.694 -74.7273 494.841C-74.3313 494.937 -73.9273 495.031 -73.5215 495.125C-73.0612 495.233 -72.5986 495.341 -72.1429 495.451C-69.8342 494.484 -66.1372 494.572 -62.4363 494.659C-58.7557 494.746 -55.0712 494.833 -52.7444 493.883C-50.319 494.688 -47.4398 495.244 -44.3405 495.505C-41.2411 495.766 -38.0089 495.725 -34.906 495.385C-34.1176 496.593 -29.8556 496.834 -26.4763 496.808C-23.097 496.783 -18.8853 496.921 -17.7681 498.084L-14.4287 497.115C-13.5779 497.735 -12.4075 498.271 -10.994 498.687C-9.58056 499.103 -7.95589 499.391 -6.22647 499.531C-5.31181 499.563 -4.43835 499.686 -3.68281 499.889C-3.05519 500.11 -2.87694 500.423 -2.69357 500.745C-2.58293 500.939 -2.47043 501.136 -2.25623 501.319C-1.92835 501.52 -1.49127 501.687 -0.977016 501.808C-0.462765 501.929 0.115709 502.001 0.716008 502.018C1.31632 502.036 1.92317 501.999 2.49242 501.91C3.06168 501.82 3.57884 501.681 4.00598 501.503L6.17831 502.278L6.28208 502.228C7.18051 501.799 8.08885 501.365 8.97457 500.927L10.0449 501.284C11.1018 501.636 12.1587 501.988 13.195 502.341C13.6731 500.989 17.5109 499.908 21.175 500.139C22.9489 500.255 24.6377 500.628 26.2843 500.992C28.8554 501.56 31.3235 502.105 33.8517 501.612L31.1381 503.539C32.9443 503.41 34.7867 503.49 36.4504 503.771C38.1141 504.052 39.5305 504.521 40.5346 505.125C40.603 505.17 40.6723 505.217 40.7428 505.264C41.4979 505.774 42.3917 506.377 43.8965 506.275C44.5578 506.215 45.0617 506.044 45.5655 505.873C45.7672 505.804 45.9688 505.736 46.1805 505.675C48.7429 504.936 53.1507 505.877 52.6331 507.051L60.317 506.135C61.7171 506.816 63.4447 507.373 65.4006 507.775C67.3565 508.177 69.5023 508.416 71.7147 508.478C71.9027 508.927 72.0909 509.381 72.279 509.835L72.5531 510.496C76.5765 509.547 80.8715 508.812 85.3285 508.31C82.8848 508.103 83.447 506.67 85.2909 506.017C85.949 505.784 86.7133 505.585 87.4752 505.387C88.8479 505.03 90.2126 504.675 90.9333 504.126C91.7024 504.153 92.4709 504.14 93.215 504.128C93.4553 503.927 93.6882 503.724 93.9218 503.521C94.1094 503.357 94.2975 503.194 94.4904 503.03C99.1882 501.966 104.258 501.216 109.498 500.807C115.73 498.626 123.668 497.439 131.759 497.478C132.79 497.503 133.828 497.486 134.858 497.427C135.898 497.334 136.92 497.207 137.914 497.046C138.922 496.84 139.845 496.569 140.646 496.245C140.75 496.204 140.872 496.171 141.006 496.15C141.14 496.128 141.282 496.117 141.425 496.118C141.748 496.131 141.899 496.25 142.052 496.37C142.199 496.486 142.347 496.603 142.653 496.627C142.948 496.65 143.233 496.56 143.519 496.469C143.837 496.367 144.156 496.266 144.491 496.32C144.615 496.338 144.705 496.379 144.796 496.419C144.883 496.458 144.971 496.498 145.092 496.518C145.433 496.574 145.74 496.486 146.051 496.397C146.342 496.314 146.636 496.229 146.966 496.26C147.125 496.273 147.247 496.318 147.371 496.364C147.438 496.388 147.506 496.413 147.579 496.433C147.867 496.5 148.187 496.542 148.521 496.556L148.938 496.587C149.921 496.662 150.899 496.736 151.905 496.807C153.034 496.867 154.128 496.999 155.144 497.198C155.631 497.293 156.043 497.439 156.34 497.622C156.636 497.804 156.806 498.017 156.833 498.238C158.737 498.1 160.68 498.176 162.449 498.457C162.291 498.47 162.144 498.477 162.292 498.554C162.439 498.63 162.78 498.605 163.035 498.586H163.037C163.293 498.567 163.696 498.585 163.697 498.679C163.371 498.722 163.082 498.804 162.871 498.915C164.216 499 165.58 499.035 166.948 499.021C166.625 499.215 166.41 499.435 166.319 499.664C166.228 499.893 166.263 500.125 166.421 500.344C166.957 500.182 167.445 499.995 167.876 499.787C168.711 500.318 169.474 500.868 170.16 501.434C170.41 501.118 170.775 500.817 171.244 500.542C171.946 500.936 172.635 501.33 173.362 501.728C173.647 501.301 174.738 501.101 175.866 500.895C176.667 500.748 177.486 500.598 178.049 500.361C178.344 500.234 178.562 500.08 178.778 499.927C179.155 499.66 179.527 499.397 180.301 499.287C180.397 499.269 180.503 499.263 180.604 499.269C180.642 499.271 180.679 499.275 180.715 499.28C180.793 499.293 180.863 499.312 180.92 499.337C180.977 499.361 181.02 499.391 181.047 499.423L182.357 500.434C182.478 500.572 182.73 500.683 183.058 500.744C183.632 500.804 184.178 500.602 184.517 500.428L186.465 499.448C186.648 499.331 186.916 499.24 187.229 499.188C187.832 499.118 188.258 499.295 188.707 499.482C189.064 499.631 189.436 499.786 189.924 499.826C190.365 499.684 190.513 499.457 190.652 499.244C190.682 499.198 190.711 499.154 190.742 499.111C190.921 498.866 191.429 498.576 192.137 498.594C192.388 498.62 192.646 498.638 192.906 498.645C193.187 498.631 193.392 498.499 193.183 498.438C193.774 498.148 194.342 497.901 194.899 497.66C195.587 497.362 196.257 497.072 196.926 496.716C197.736 496.303 199.01 495.837 200.234 496.069C200.582 496.14 200.821 496.265 201.06 496.391C201.316 496.525 201.572 496.66 201.965 496.728C202.989 496.908 203.965 496.569 204.881 496.252C205.092 496.178 205.3 496.106 205.504 496.042C206.997 495.593 209.854 495.714 210.073 496.412C211.943 495.906 214.117 495.625 216.331 495.603C218.112 495.49 219.917 495.514 221.652 495.674C222.483 495.751 223.237 495.922 223.829 496.166C224.422 496.41 224.829 496.719 225.006 497.057L231.676 496.073C232.24 495.973 232.849 495.927 233.455 495.94C234.294 495.986 234.861 496.244 235.424 496.499C236.016 496.768 236.604 497.034 237.5 497.05C237.441 496.463 239.413 496.144 240.999 496.177C241.49 496.188 241.982 496.216 242.471 496.244C243.566 496.307 244.651 496.369 245.686 496.229C248.121 495.912 248.712 494.756 248.867 493.805C250.703 493.941 252.336 494.34 253.473 494.93C253.925 494.385 253.945 493.802 253.531 493.264C254.072 493.33 254.661 493.308 255.177 493.203C255.693 493.098 256.097 492.917 256.304 492.7C256.599 492.275 256.841 491.846 257.027 491.413C257.423 491.011 258.114 490.665 259.005 490.424C259.896 490.182 260.941 490.057 261.995 490.066C262.683 491.187 262.904 492.352 262.649 493.515C265.807 493.637 268.985 493.686 272.169 493.66C272.705 494.383 273.818 495.249 275.854 495.191C276.645 495.124 277.426 495.037 278.193 494.93C280.593 494.758 282.414 495.657 283.379 496.471C283.663 496.709 284.022 496.975 284.706 497.028C285.16 497.048 285.622 497.018 286.046 496.942L290.477 496.266C292.275 495.972 294.009 495.613 295.657 495.193C296.705 495.529 297.978 495.734 299.327 495.785C305.117 496.224 310.979 496.543 316.863 496.748C317.656 496.809 318.485 496.759 319.216 496.606C320.345 496.296 320.006 495.664 319.571 495.177C322.792 495.173 326.001 495.185 329.223 495.231C330.027 495.218 330.822 495.281 331.544 495.415C332.168 495.615 332.7 495.856 333.117 496.131C333.963 496.514 335.069 496.787 336.305 496.919C337.541 497.051 338.856 497.036 340.096 496.876C343.516 498.466 346.414 500.229 348.723 502.127C349.024 501.577 349.763 501.076 350.823 500.703C351.977 500.368 354.027 500.419 354.56 500.904C354.688 501.028 354.709 501.162 354.729 501.297C354.752 501.448 354.775 501.6 354.952 501.738C355.522 502.171 356.945 502.121 358.395 502.07C359.019 502.048 359.647 502.026 360.215 502.042C361.921 502.09 363.28 502.549 364.611 502.998C366.157 503.521 367.664 504.03 369.628 503.865C369.3 503.1 368.587 502.377 367.531 501.739C368.561 501.821 369.634 501.791 370.645 501.654C371.657 501.517 372.572 501.277 373.302 500.958C373.949 500.644 374.35 500.26 374.453 499.858C374.555 499.457 374.354 499.056 373.875 498.71C375.609 498.361 377.232 498.992 378.646 499.543C378.869 499.629 379.086 499.714 379.298 499.792C380.241 500.13 381.355 500.382 382.567 500.532C383.78 500.682 385.064 500.728 386.34 500.665C387.39 500.617 388.398 500.499 389.406 500.381C390.153 500.294 390.9 500.207 391.663 500.148C394.31 499.951 396.968 500.117 399.633 500.284C401.667 500.411 403.706 500.539 405.749 500.505C407.218 500.483 408.756 500.387 410.288 500.292C414.013 500.059 417.708 499.829 420.318 500.656C420.341 500.665 420.366 500.673 420.394 500.681C420.369 500.672 420.344 500.664 420.318 500.656C419.88 500.49 420.37 500.136 421.043 500.097C421.76 500.08 422.458 500.173 422.999 500.356C422.967 500.15 423.047 499.943 423.234 499.748C423.42 499.553 423.708 499.375 424.078 499.228C424.448 499.081 424.89 498.967 425.374 498.895C425.858 498.822 426.371 498.794 426.878 498.81C426.993 499.323 427.51 499.803 428.353 500.18C429.524 499.865 430.924 499.734 432.288 499.809C431.968 500.385 432.151 500.981 432.803 501.495C433.528 501.147 434.414 500.859 435.409 500.65C436.404 500.441 437.486 500.315 438.591 500.279C440.872 500.266 443.142 501.02 442.692 501.847C443.385 501.565 444.239 501.357 445.173 501.243C446.107 501.129 447.089 501.113 448.025 501.197L448.732 499.643C450.499 500.222 453.284 499.692 455.277 499.185C457.269 498.678 460.276 498.233 461.739 498.916C462.796 499.393 464.454 500.068 466.086 499.892C466.998 499.795 467.825 499.62 468.653 499.444C469.307 499.306 469.962 499.167 470.66 499.066C472.836 498.821 475.098 498.757 477.307 498.878C480.993 498.981 484.888 499.115 487.877 499.896C488.107 499.956 488.337 500.021 488.569 500.086C489.701 500.404 490.88 500.735 492.245 500.63C492.771 500.592 493.247 500.492 493.722 500.392C494.193 500.294 494.662 500.195 495.178 500.157C496.477 500.135 497.752 500.267 498.845 500.537C500.068 500.734 501.656 500.827 502.503 500.447C502.643 500.384 502.755 500.311 502.867 500.239C503.046 500.123 503.224 500.008 503.508 499.937C504.102 499.781 504.833 499.856 505.564 499.931C506.119 499.988 506.675 500.045 507.169 500C507.95 499.93 508.393 499.694 508.846 499.452C509.057 499.339 509.271 499.225 509.522 499.127C511.595 498.337 515.179 498.841 517.628 499.399C517.655 499.305 517.683 499.21 517.711 499.116C517.768 498.927 517.825 498.739 517.87 498.55C519.519 499.368 523.139 499.151 525.533 498.588C526.348 498.396 527.119 498.172 527.889 497.948C529.384 497.515 530.875 497.082 532.667 496.889C533.881 497.562 535.436 498.121 537.233 498.529C537.328 497.696 537.592 496.865 538.022 496.045L547.081 496.391C549.047 496.478 551.523 496.462 552.477 495.809C553.173 495.881 553.376 496.165 553.579 496.448C553.782 496.731 553.985 497.014 554.682 497.087C555.204 497.118 555.742 497.068 556.192 496.949L560.072 496.223C560.928 497.023 562.258 497.721 563.949 498.255C564.301 498.391 564.726 498.494 565.193 498.555C565.66 498.615 566.158 498.633 566.651 498.606C567.431 498.507 567.891 498.248 568.358 497.985C568.614 497.841 568.872 497.696 569.185 497.576C569.824 497.369 570.575 497.227 571.37 497.164C572.166 497.101 572.98 497.119 573.742 497.215C575.237 497.423 576.624 497.735 577.844 498.136C578.934 498.452 580.028 498.767 581.123 499.082C582.7 499.535 584.279 499.986 585.849 500.436C587.235 500.843 589.036 501.278 590.739 501.018C594.549 500.432 599.432 501.37 600.103 502.841L604.031 502.031C604.733 502.405 605.226 502.839 605.479 503.302C606.754 502.91 608.26 502.505 609.836 502.613C610.643 502.704 611.412 502.84 612.124 503.015C613.086 503.188 614.132 503.276 615.197 503.275C616.262 503.274 617.322 503.183 618.31 503.008C619.697 502.763 620.734 501.99 619.509 501.718C620.626 501.532 621.835 501.47 623.01 501.538C624.185 501.605 625.283 501.801 626.189 502.103C626.521 502.233 626.813 502.373 627.102 502.512C627.508 502.707 627.907 502.898 628.401 503.055C628.812 503.202 629.325 503.296 629.877 503.325C630.428 503.354 630.993 503.316 631.503 503.216C632.003 503.087 632.279 502.881 632.553 502.676C632.839 502.463 633.123 502.251 633.657 502.129C634.651 501.905 635.707 502.111 636.791 502.323C637.337 502.43 637.891 502.538 638.447 502.594C639.209 502.655 640.002 502.639 640.758 502.547C641.513 502.455 642.208 502.291 642.782 502.068C643.845 501.624 644.705 501.107 645.32 500.544L649.949 501.575C650.005 501.283 650.073 501 650.154 500.712C651.626 500.717 653.103 500.708 654.583 500.684C654.762 500.453 654.966 500.228 655.169 500.002C656.177 500.177 657.314 500.206 658.392 500.083C659.414 499.903 659.782 499.269 658.742 499.118C659.139 498.903 659.681 498.74 660.299 498.648C660.917 498.556 661.583 498.54 662.211 498.602C662.867 498.645 663.468 498.769 663.935 498.956C664.402 499.144 664.713 499.386 664.827 499.651C665.891 499.295 667.142 499.046 668.475 498.924C668.614 498.902 668.759 498.887 668.906 498.881C669.006 498.877 669.108 498.876 669.208 498.879C669.456 498.887 669.694 498.918 669.904 498.97C670.451 499.172 669.94 499.44 669.413 499.718C669.124 499.869 668.83 500.024 668.703 500.171C668.344 500.587 669.364 501.01 670.524 501.095C671.685 501.136 672.863 501.057 673.949 500.866C673.774 501.094 673.753 501.335 673.888 501.563C674.023 501.791 674.308 501.998 674.714 502.163C675.162 502.332 675.746 502.431 676.367 502.444C676.987 502.456 677.607 502.381 678.12 502.23C678.84 501.993 679.079 501.597 679.31 501.216C679.585 500.763 679.847 500.33 680.893 500.208C681.993 500.08 682.825 500.38 683.697 500.693C684.349 500.928 685.024 501.171 685.851 501.249C686.377 500.653 686.571 500.022 686.419 499.401C687.551 499.635 688.83 499.738 690.118 499.7C691.406 499.661 692.656 499.482 693.736 499.182C693.9 499.135 694.064 499.083 694.23 499.031C694.973 498.798 695.746 498.555 696.655 498.601C697.427 498.648 698.021 498.885 698.587 499.111C699.283 499.389 699.937 499.65 700.83 499.521C701.211 499.283 701.422 499.009 701.44 498.73C702.663 498.942 704.301 499.118 705.1 498.72C705.229 498.652 705.316 498.573 705.404 498.494C705.481 498.424 705.559 498.354 705.666 498.29C706.524 497.777 708.638 497.945 710.021 498.244C711.405 498.542 713.058 498.915 714.505 498.62C714.948 498.507 715.356 498.373 715.719 498.219C717.599 497.551 720.365 497.353 722.876 497.193C725.387 497.033 727.898 496.873 730.409 496.704C731.788 496.575 733.212 496.575 734.569 496.705C735.099 496.777 735.584 496.891 736.067 497.005C736.733 497.162 737.396 497.318 738.167 497.362C739.962 497.469 741.474 496.985 742.928 496.519C743.265 496.411 743.598 496.304 743.932 496.206C746.542 495.431 749.855 495.09 753.059 494.766C753.769 494.677 754.511 494.647 755.241 494.676C756.045 494.781 756.8 494.935 757.482 495.134C758.765 495.41 760.239 495.521 761.708 495.45C762.158 495.206 761.963 494.914 761.767 494.617C761.593 494.355 761.417 494.09 761.682 493.854C761.971 493.597 762.664 493.454 763.346 493.314C763.544 493.273 763.742 493.233 763.929 493.19C764.807 492.976 765.478 492.645 765.821 492.256C766.164 491.867 766.155 491.446 765.797 491.069L770.173 490.799C771.027 490.752 771.971 491.026 772.908 491.297C773.938 491.595 774.958 491.89 775.838 491.754C776.578 491.648 776.915 491.333 777.215 491.052L777.217 491.05C777.82 490.426 778.86 489.883 780.205 489.488C780.92 489.29 781.738 489.164 782.588 489.12C783.438 489.077 784.294 489.119 785.082 489.24C785.571 489.324 785.998 489.449 786.424 489.573C786.914 489.716 787.403 489.859 787.985 489.939C789.073 490.089 790.74 489.83 790.538 489.403C791.68 489.849 794.211 489.392 793.981 488.774L796.735 489.326C797.13 489.442 797.61 489.501 798.105 489.497C798.592 489.479 799.053 489.278 798.83 489.114C799.637 489.508 801.059 489.351 802.446 489.198C802.877 489.151 803.305 489.104 803.71 489.074C804.945 489.019 806.187 489.057 807.372 489.187L812.394 489.599C812.908 489.621 813.393 489.698 813.801 489.823C814.151 489.958 814.325 490.148 814.492 490.331C814.658 490.512 814.816 490.686 815.134 490.789C815.772 490.996 816.746 490.862 817.574 490.749C819.289 490.526 821.086 490.444 822.858 490.506C824.63 490.569 826.341 490.776 827.89 491.114C827.003 491.767 826.404 492.474 826.118 493.204C828.126 492.914 830.287 492.888 832.291 493.127C832.967 493.26 833.744 493.291 834.488 493.215C835.141 493.097 835.368 492.839 835.6 492.575C835.766 492.386 835.935 492.194 836.263 492.049C837.284 491.578 839.115 491.782 840.761 491.965C841.046 491.997 841.326 492.029 841.595 492.056C844.65 492.376 847.963 491.976 850.907 491.463C851.473 491.902 852.25 492.289 853.195 492.602C853.7 492.761 854.304 492.863 854.947 492.897C855.59 492.93 856.249 492.895 856.858 492.794C857.419 492.682 857.84 492.488 858.269 492.29C858.584 492.144 858.903 491.997 859.284 491.88C860.182 491.603 861.914 491.569 862.153 491.991C862.065 491.132 865.303 490.669 867.408 491.015C869.17 491.305 870.296 491.907 871.41 492.503C871.626 492.618 871.842 492.734 872.062 492.846C873.415 493.541 875.318 494.226 877.647 494.158C877.596 494.312 877.633 494.467 877.757 494.611C877.88 494.755 878.086 494.884 878.359 494.988C878.63 495.092 878.961 495.168 879.323 495.21C879.686 495.252 880.071 495.259 880.446 495.229C881.319 495.105 882.14 494.925 882.878 494.695C883.702 494.502 884.607 494.376 885.54 494.324C886.473 494.273 887.416 494.296 888.315 494.394C889.653 494.245 890.884 493.959 891.888 493.564C892.883 493.187 894.402 492.866 895.626 493.088C896.263 493.206 896.791 493.449 897.486 493.413C898.225 493.369 898.4 493.087 898.584 492.789C898.737 492.542 898.897 492.284 899.393 492.142C901.625 492.648 903.487 493.379 904.809 494.267L904.969 493.828C905.196 493.212 905.421 492.599 905.637 491.98C905.641 491.824 905.73 491.67 905.899 491.527C906.067 491.385 906.311 491.259 906.612 491.158C907.121 491.018 907.755 491.018 908.402 491.018C908.944 491.018 909.495 491.018 909.988 490.935C910.987 490.765 911.284 490.362 911.589 489.947C911.775 489.695 911.963 489.438 912.315 489.227C912.856 488.954 913.624 488.77 914.466 488.711C915.308 488.653 916.162 488.724 916.861 488.91C916.001 489.239 915.353 489.647 914.977 490.097C914.843 490.326 914.911 490.563 915.169 490.768C915.427 490.972 915.858 491.131 916.386 491.216C916.849 491.236 917.306 491.27 917.754 491.317C918.937 491.485 918.935 491.969 918.932 492.484C918.93 492.88 918.928 493.294 919.463 493.597C920.228 494.078 921.973 494.114 923.411 494.026C924.831 493.865 926.304 493.812 927.753 493.871C928.541 493.946 929.218 494.112 929.896 494.279C930.553 494.44 931.212 494.602 931.975 494.682C933.09 494.804 934.342 494.734 935.567 494.666C937.23 494.574 938.843 494.485 939.995 494.881C939.579 495.629 939.702 496.403 940.348 497.109C940.765 497.466 941.487 497.746 942.383 497.899C943.28 498.053 944.294 498.071 945.242 497.948C945.712 497.874 946.115 497.747 946.518 497.62C946.98 497.475 947.441 497.33 948.001 497.266C949.609 497.076 951.352 497.744 950.776 498.327C951.394 498.055 951.999 497.778 952.605 497.496C952.79 497.558 953.007 497.603 953.24 497.628C953.474 497.653 953.72 497.658 953.961 497.642C954.203 497.626 954.436 497.591 954.645 497.537C954.855 497.484 955.035 497.413 955.176 497.331C955.616 497.711 956.304 498.032 957.169 498.26C958.034 498.489 959.043 498.616 960.09 498.629C961.011 498.882 962.317 498.856 963.601 498.83C965.033 498.801 966.438 498.772 967.248 499.134C967.539 499.261 967.737 499.429 967.931 499.593C968.252 499.866 968.56 500.126 969.254 500.164C969.864 500.198 970.358 500.043 970.868 499.884C971.287 499.753 971.718 499.619 972.234 499.582C972.457 499.571 972.681 499.57 972.901 499.578C973.114 499.587 973.324 499.604 973.528 499.63L994.66 501.813C996.652 502.018 998.742 502.251 999.972 502.848C1000.8 503.377 1001.39 503.965 1001.71 504.584C1001.89 504.901 1002.28 505.191 1002.83 505.424C1003.38 505.658 1004.07 505.827 1004.84 505.916C1005.75 505.977 1006.69 505.872 1007.62 505.768C1008.69 505.648 1009.76 505.529 1010.77 505.666C1011.41 505.771 1011.98 505.93 1012.46 506.133C1014.79 507.018 1017.08 507.969 1019.29 508.922L1019.34 508.794C1019.65 508.051 1019.94 507.353 1020.25 506.637C1020.82 506.589 1021.41 506.628 1021.9 506.749C1021.85 506.625 1021.79 506.502 1021.73 506.38C1021.67 506.268 1021.62 506.157 1021.57 506.047C1022.51 506.353 1023.64 506.548 1024.85 506.612C1025.06 505.798 1025.28 504.97 1025.51 504.13C1031.87 503.548 1038.02 502.595 1043.76 501.301C1046 500.79 1049.04 500.221 1051.07 500.83C1051.62 500.994 1052.06 501.233 1052.49 501.466C1053.27 501.89 1054.02 502.295 1055.28 502.194C1055.92 502.147 1056.38 501.975 1056.85 501.801C1057.08 501.716 1057.31 501.63 1057.56 501.559C1059.03 501.148 1061.01 501.219 1062.8 501.282L1062.86 501.284C1068.32 501.457 1073.84 501.229 1079.17 500.612C1078.48 500.262 1079.26 499.711 1080.37 499.569C1080.95 499.519 1081.54 499.516 1082.11 499.56C1082.68 499.604 1083.22 499.695 1083.7 499.826C1083.39 500.33 1085.8 500.805 1087.18 500.792C1087.56 500.788 1087.95 500.773 1088.34 500.757C1089.36 500.715 1090.37 500.674 1091.25 500.849C1092.41 501.087 1092.74 501.583 1093.07 502.079C1093.18 502.242 1093.29 502.404 1093.43 502.558C1093.99 503.181 1096.2 503.738 1097.34 503.225C1097.55 503.128 1097.67 503.012 1097.79 502.897C1097.95 502.744 1098.11 502.594 1098.45 502.495C1099.31 502.261 1100.12 502.52 1100.99 502.795C1101.72 503.028 1102.49 503.272 1103.35 503.24C1104.21 503.207 1104.72 502.932 1105.24 502.65C1105.66 502.421 1106.09 502.187 1106.73 502.073C1107.39 501.996 1108.09 502.007 1108.72 502.104C1109.35 502.202 1109.87 502.381 1110.22 502.614C1110.81 503.079 1111.54 503.51 1112.4 503.897C1113.43 504.231 1115.42 504.268 1115.95 503.765C1116.47 504.058 1117.23 504.271 1118.09 504.372C1118.37 504.125 1118.65 503.88 1118.92 503.636C1119.05 503.522 1119.17 503.409 1119.29 503.295C1119.85 504.531 1123.72 505.051 1126.99 505.348C1126.3 504.762 1128.13 504.129 1129.86 504.036C1130.71 503.991 1131.57 504.017 1132.43 504.043C1133.32 504.07 1134.21 504.097 1135.09 504.044C1136.47 503.963 1137.79 503.701 1139.09 503.445C1141.05 503.057 1142.94 502.683 1144.84 502.971C1145.61 503.124 1146.35 503.3 1147.06 503.498C1148.28 503.754 1149.69 503.84 1151.07 503.742C1152.45 503.645 1153.73 503.369 1154.72 502.957C1155.7 503.605 1156.28 504.345 1156.39 505.114C1158.61 504.394 1161.41 504.044 1164.18 504.136C1164.4 504.143 1164.63 504.152 1164.85 504.161C1166.52 504.226 1168.37 504.299 1169.3 503.805L1171.62 504.543L1173.24 503.805L1174.25 504.214C1175.25 504.626 1176.26 505.037 1177.27 505.444C1177.82 504.946 1177.98 504.395 1177.72 503.87C1182.28 504.23 1184.7 506.009 1186.53 507.59C1186.61 507.683 1186.73 507.768 1186.9 507.84C1187.06 507.912 1187.26 507.97 1187.48 508.009C1187.8 508.022 1188.14 508.006 1188.45 507.961C1188.76 507.917 1189.05 507.846 1189.29 507.752C1193.58 506.516 1199.39 506.441 1204.73 506.422C1206.71 506.405 1209.01 506.456 1210.1 507.056C1210.5 506.978 1210.95 506.957 1211.38 506.997C1211.8 507.036 1212.18 507.134 1212.44 507.274C1212.68 506.989 1212.93 506.698 1213.2 506.407C1213.85 506.584 1214.63 506.679 1215.43 506.682C1216.23 506.684 1217.03 506.594 1217.72 506.422C1218.32 506.617 1218.91 506.817 1219.51 507.019C1219.79 507.113 1220.07 507.208 1220.35 507.303C1220.47 507.358 1220.63 507.402 1220.8 507.432C1220.97 507.461 1221.15 507.476 1221.34 507.474C1221.79 507.467 1221.98 507.31 1222.18 507.148C1222.25 507.083 1222.33 507.019 1222.43 506.962C1223.38 506.403 1225.67 506.717 1227.18 507.023C1228.68 507.329 1231.28 507.43 1231.63 506.787C1232.45 506.601 1233.29 506.457 1234.13 506.313C1234.97 506.168 1235.82 506.023 1236.65 505.835C1237.65 506.217 1238.76 506.549 1239.96 506.823C1240.2 506.895 1240.5 506.932 1240.8 506.928C1241.36 506.901 1241.56 506.681 1241.77 506.457C1241.84 506.374 1241.92 506.291 1242.01 506.217C1242.63 505.703 1244.48 505.618 1245.99 505.593L1252.69 505.523C1253.57 505.556 1254.46 505.457 1255.2 505.245C1255.64 505.027 1255.87 504.75 1255.83 504.473C1255.93 503.734 1255.7 502.998 1255.15 502.3C1256.35 502.599 1257.71 502.785 1259.12 502.843C1260.58 502.844 1262.21 502.481 1262.34 501.95L1263.84 502.237C1264.11 502.069 1264.23 501.869 1264.18 501.673L1267.04 501.903C1267.32 501.376 1267.47 500.84 1267.48 500.304C1268.46 500.534 1269.53 500.696 1270.66 500.781C1270.88 500.342 1271.11 499.904 1271.34 499.465C1274.92 499.695 1278.59 499.69 1282.2 499.45C1280.99 500.569 1279.56 501.65 1277.94 502.683L1285.03 501.307C1287.37 500.878 1290.06 500.201 1289.87 499.25C1290.5 499.622 1291.34 499.923 1292.33 500.129C1292.63 500.194 1292.96 500.233 1293.31 500.245C1293.52 500.252 1293.75 500.249 1293.97 500.234C1294.53 500.196 1295.06 500.086 1295.47 499.92C1296.99 500.28 1299.02 500.647 1300.65 500.304C1301.24 500.15 1301.8 499.976 1302.31 499.783C1302.94 499.603 1303.65 499.482 1304.39 499.429C1305.13 499.377 1305.89 499.394 1306.6 499.48C1309.12 499.078 1312.71 499.874 1314.32 500.659C1314.37 500.687 1314.42 500.716 1314.47 500.745C1314.91 501 1315.41 501.288 1316.28 501.185C1316.81 501.122 1317.02 500.927 1317.23 500.726C1317.41 500.557 1317.59 500.384 1317.98 500.282C1318.64 500.104 1319.42 500.237 1320.21 500.371C1320.97 500.5 1321.74 500.63 1322.43 500.496C1323.02 500.386 1323.22 500.148 1323.43 499.908C1323.62 499.687 1323.82 499.465 1324.31 499.339C1325.11 499.125 1326.13 499.284 1327.13 499.438C1328.16 499.6 1329.17 499.756 1329.86 499.48C1330.05 499.405 1330.17 499.309 1330.3 499.22C1330.41 499.149 1330.53 499.083 1330.71 499.036C1331.36 498.862 1332.16 499.045 1332.89 499.211C1333.02 499.24 1333.15 499.269 1333.27 499.295C1334.13 499.466 1335.11 499.505 1336.05 499.405C1336.99 499.305 1337.82 499.074 1338.39 498.752C1339.01 499.384 1341.26 499.575 1343.07 499.451C1343.93 499.393 1344.76 499.281 1345.59 499.169C1346.51 499.046 1347.43 498.922 1348.4 498.87C1349.02 498.828 1349.63 498.82 1350.23 498.811C1350.87 498.802 1351.5 498.793 1352.13 498.744C1352.73 498.723 1353.31 498.636 1353.81 498.492C1354.31 498.348 1354.71 498.153 1354.96 497.927L1356.62 498.849C1356.85 498.818 1357.06 498.769 1357.24 498.705C1357.42 498.641 1357.57 498.563 1357.67 498.476C1357.76 498.542 1357.86 498.603 1357.99 498.657C1358.1 498.71 1358.24 498.756 1358.39 498.796C1358.69 498.876 1359.04 498.923 1359.4 498.934C1359.76 498.945 1360.13 498.918 1360.47 498.857C1360.81 498.796 1361.11 498.702 1361.34 498.584L1363.48 499.537C1363.91 499.475 1364.29 499.36 1364.56 499.208C1364.91 499.816 1365.54 500.389 1366.41 500.897C1366.89 501.157 1367.51 501.365 1368.23 501.504C1368.95 501.642 1369.75 501.708 1370.56 501.694C1372.62 501.597 1374.03 500.914 1375.33 500.286C1375.44 500.233 1375.55 500.18 1375.66 500.128C1377.05 499.463 1379.31 498.813 1381.34 499.131C1382.11 499.276 1382.77 499.498 1383.26 499.776C1384.85 500.565 1386.18 501.435 1387.23 502.365C1388.67 501.58 1390.12 500.797 1391.58 500.016C1392.02 499.776 1393.16 499.555 1393.37 499.833L1394.09 499.139C1394.47 499.389 1394.99 499.597 1395.62 499.744C1396.24 499.891 1396.95 499.974 1397.68 499.985C1396.85 499.568 1398.68 499.029 1400.11 499.095C1400.66 499.12 1401.19 499.186 1401.72 499.251C1402.58 499.355 1403.42 499.458 1404.29 499.392C1404.71 499.362 1405.11 499.292 1405.51 499.221C1406.04 499.127 1406.57 499.034 1407.15 499.039C1408.56 499.05 1409.39 499.6 1410.04 500.059C1410.7 500.518 1411.84 501.023 1413.22 500.882C1414.12 500.842 1415.03 500.896 1415.86 501.038C1416.69 501.181 1417.4 501.409 1417.94 501.699C1418.31 501.871 1418.75 502.101 1419.34 502.047C1419.79 502.002 1419.94 501.834 1420.09 501.658C1420.2 501.533 1420.31 501.403 1420.54 501.31C1421.1 501.089 1422.13 501.22 1422.82 501.372C1423.5 501.524 1424.35 501.712 1425.09 501.577C1425.36 501.53 1425.56 501.449 1425.77 501.368C1425.95 501.296 1426.13 501.223 1426.36 501.175C1427.12 501.029 1427.86 501.196 1428.63 501.371C1429.25 501.511 1429.89 501.656 1430.58 501.645C1430.84 501.639 1431.1 501.609 1431.37 501.578C1431.81 501.526 1432.24 501.467 1432.59 501.508C1432.87 501.541 1433.09 501.61 1433.31 501.678C1433.52 501.745 1433.74 501.811 1434 501.841C1434.65 501.918 1435.24 501.76 1435.84 501.598C1436.15 501.515 1436.47 501.429 1436.8 501.375C1437.22 501.316 1437.67 501.309 1438.09 501.353C1438.52 501.397 1438.89 501.49 1439.18 501.623L1442.88 472.401Z" fill="#043F26"/>
</svg>
